<svg xmlns="http://www.w3.org/2000/svg" width="186.395" height="59.018" viewBox="0 0 186.395 59.018"><path fill="#9D9D9D" d="M12.141 37.771L18.97 5.564l6.914 32.207H12.141zM23.944 0h-9.695L0 59.017h7.504l3.288-14.924h16.439l3.204 14.924h7.504L23.944 0zm35.119 52.694h-5.357c-1.068 0-1.827-.196-2.276-.591-.451-.393-.674-1.038-.674-1.938V0H37.049v6.323h6.539v44.263c0 2.923.717 5.06 2.149 6.407 1.434 1.349 3.105 2.023 5.018 2.023h8.309l-.001-6.322zm20.831 0h-5.357c-1.068 0-1.827-.196-2.276-.591-.45-.393-.674-1.038-.674-1.938V0H57.879v6.323h6.539v44.263c0 2.923.717 5.06 2.149 6.407 1.434 1.349 3.105 2.023 5.018 2.023h8.309v-6.322zm30.151-14.079c0-4.891-1.827-8.348-5.48-10.371 3.092-2.192 4.639-5.451 4.639-9.78v-5.311C109.202 4.384 104.367 0 94.701 0h-9.78v6.323h10.791c2.136 0 3.695.478 4.68 1.433.982.957 1.477 2.502 1.477 4.638v6.914c0 1.854-.591 3.345-1.771 4.468-1.181 1.125-2.643 1.686-4.385 1.686h-8.178v6.323h9.021c1.854 0 3.343.548 4.468 1.645 1.124 1.096 1.688 2.57 1.688 4.427v8.684c0 2.136-.505 3.696-1.519 4.679-1.012.984-2.586 1.477-4.721 1.477h-11.55v6.323h10.791c5.059 0 8.712-1.055 10.961-3.162 2.247-2.107 3.372-5.493 3.372-10.159v-7.084zm38.736-25.463c0-4.665-1.295-8.023-3.88-10.075C142.317 1.026 138.495 0 133.436 0H117.08v59.018h17.368c5.112 0 8.78-1.013 11.003-3.035 2.219-2.023 3.33-5.451 3.33-10.286V13.152zm-8.853 38.066c-1.011.984-2.585 1.477-4.721 1.477h-10.792V6.323h10.877c1.854 0 3.343.548 4.468 1.644 1.124 1.097 1.686 2.571 1.686 4.427V46.54c0 2.135-.507 3.696-1.518 4.678zm46.467-38.066C186.395 4.384 181.56 0 171.894 0h-15.936v59.018h7.336V36.084h8.768c9.556 0 14.333-4.438 14.333-13.32v-9.612zm-8.811 15.134c-.983.984-2.544 1.475-4.68 1.475h-9.61V6.323h9.61c2.136 0 3.695.478 4.68 1.433.982.957 1.476 2.502 1.476 4.638v11.213c0 2.137-.493 3.696-1.476 4.679z"/></svg>